<?xml version="1.0" encoding="UTF-8" standalone="no"?>
<svg
   xmlns:dc="http://purl.org/dc/elements/1.1/"
   xmlns:cc="http://creativecommons.org/ns#"
   xmlns:rdf="http://www.w3.org/1999/02/22-rdf-syntax-ns#"
   xmlns:svg="http://www.w3.org/2000/svg"
   xmlns="http://www.w3.org/2000/svg"
   xmlns:sodipodi="http://sodipodi.sourceforge.net/DTD/sodipodi-0.dtd"
   xmlns:inkscape="http://www.inkscape.org/namespaces/inkscape"
   width="169.51996mm"
   height="76.730576mm"
   viewBox="0 0 169.51996 76.730576"
   version="1.1"
   id="svg8"
   inkscape:version="1.0.1 (3bc2e813f5, 2020-09-07)"
   sodipodi:docname="kemenkes.svg">
  <defs
     id="defs2" />
  <sodipodi:namedview
     id="base"
     pagecolor="#ffffff"
     bordercolor="#666666"
     borderopacity="1.0"
     inkscape:pageopacity="0.0"
     inkscape:pageshadow="2"
     inkscape:zoom="0.66603375"
     inkscape:cx="337.22019"
     inkscape:cy="34.756276"
     inkscape:document-units="mm"
     inkscape:current-layer="layer1"
     inkscape:document-rotation="0"
     showgrid="false"
     fit-margin-top="0"
     fit-margin-left="0"
     fit-margin-right="0"
     fit-margin-bottom="0"
     inkscape:window-width="1366"
     inkscape:window-height="705"
     inkscape:window-x="-8"
     inkscape:window-y="-8"
     inkscape:window-maximized="1" />
  <metadata
     id="metadata5">
    <rdf:RDF>
      <cc:Work
         rdf:about="">
        <dc:format>image/svg+xml</dc:format>
        <dc:type
           rdf:resource="http://purl.org/dc/dcmitype/StillImage" />
        <dc:title></dc:title>
      </cc:Work>
    </rdf:RDF>
  </metadata>
  <g
     inkscape:label="Layer 1"
     inkscape:groupmode="layer"
     id="layer1"
     transform="translate(-22.498145,-83.091708)">
    <g
       id="g852"
       inkscape:label="www.JalanNinja.com - Logo KEMENKES RI Vector Lengkap Format AI, CDR, PDF, dan PNG ( Transparant )"
       transform="matrix(0.35277777,0,0,-0.35277777,0,80.000017)" />
    <g
       id="g909"
       transform="matrix(0.89219527,0,0,-0.89219527,6.0956706,232.43788)">
      <path
         d="m 113.1386,152.3146 c 0,0.6162 0.4519,1.1143 1.1294,1.1143 0.6508,0 1.1327,-0.4224 1.1327,-1.1143 v -3.2624 l 3.7137,3.9543 c 0.1661,0.1829 0.4532,0.4224 0.8742,0.4224 0.5734,0 1.1182,-0.4397 1.1182,-1.086 0,-0.3917 -0.2432,-0.7078 -0.7398,-1.2087 l -2.8519,-2.804 3.4846,-3.6377 c 0.3628,-0.3648 0.6344,-0.6951 0.6344,-1.148 0,-0.7101 -0.5579,-1.0403 -1.1772,-1.0403 -0.4369,0 -0.724,0.2537 -1.1481,0.7092 l -3.9081,4.2233 v -3.8466 c 0,-0.5913 -0.4524,-1.0859 -1.1327,-1.0859 -0.6475,0 -1.1294,0.4206 -1.1294,1.0859 z"
         style="fill:#231916;fill-opacity:1;fill-rule:nonzero;stroke:none"
         id="path911" />
      <path
         d="m 122.7345,152.0249 c 0,0.756 0.377,1.3161 1.1769,1.3161 h 3.742 c 0.7254,0 1.0738,-0.5145 1.0738,-1.0409 0,-0.5122 -0.3631,-1.044 -1.0738,-1.044 h -2.6543 v -2.2042 h 2.4741 c 0.7404,0 1.1012,-0.5102 1.1012,-1.042 0,-0.5122 -0.3764,-1.0412 -1.1012,-1.0412 h -2.4741 v -2.2952 h 2.7915 c 0.7251,0 1.0721,-0.5131 1.0721,-1.0389 0,-0.5153 -0.3628,-1.0412 -1.0721,-1.0412 h -3.8956 c -0.663,0 -1.1605,0.451 -1.1605,1.1328 z"
         style="fill:#231916;fill-opacity:1;fill-rule:nonzero;stroke:none"
         id="path913" />
      <path
         d="m 131.1996,152.2672 c 0.0921,0.5434 0.6797,1.1617 1.4785,1.1617 0.7555,0 1.3451,-0.5431 1.5112,-1.0863 l 1.7796,-5.9765 h 0.0323 l 1.7787,5.9765 c 0.1656,0.5432 0.7543,1.0863 1.5086,1.0863 0.8011,0 1.389,-0.6183 1.4797,-1.1617 l 1.4018,-8.4228 c 0.0172,-0.0907 0.0172,-0.1775 0.0172,-0.2546 0,-0.665 -0.4838,-1.0859 -1.0851,-1.0859 -0.7701,0 -1.0729,0.3461 -1.18,1.0553 l -0.889,6.1427 h -0.0297 l -1.8122,-6.3227 c -0.1063,-0.3662 -0.3915,-0.8753 -1.2073,-0.8753 -0.8138,0 -1.1021,0.5091 -1.2056,0.8753 l -1.8133,6.3227 h -0.0295 l -0.8906,-6.1427 c -0.1063,-0.7092 -0.4068,-1.0553 -1.177,-1.0553 -0.6032,0 -1.0865,0.4209 -1.0865,1.0859 0,0.0771 0,0.1639 0.0148,0.2546 z"
         style="fill:#231916;fill-opacity:1;fill-rule:nonzero;stroke:none"
         id="path915" />
      <path
         d="m 143.6034,152.0249 c 0,0.756 0.3782,1.3161 1.1775,1.3161 h 3.7443 c 0.726,0 1.0715,-0.5145 1.0715,-1.0409 0,-0.5122 -0.3634,-1.044 -1.0715,-1.044 h -2.6566 v -2.2042 h 2.4752 c 0.737,0 1.1013,-0.5102 1.1013,-1.042 0,-0.5122 -0.377,-1.0412 -1.1013,-1.0412 h -2.4752 v -2.2952 h 2.7918 c 0.7249,0 1.071,-0.5131 1.071,-1.0389 0,-0.5153 -0.3617,-1.0412 -1.071,-1.0412 h -3.8942 c -0.6639,0 -1.1628,0.451 -1.1628,1.1328 z"
         style="fill:#231916;fill-opacity:1;fill-rule:nonzero;stroke:none"
         id="path917" />
      <path
         d="m 150.8769,152.2502 c 0,0.756 0.4847,1.179 1.1327,1.179 0.2868,0 0.7543,-0.2245 0.9513,-0.4981 l 4.7837,-6.3833 h 0.0315 v 5.7024 c 0,0.756 0.4816,1.179 1.1296,1.179 0.6508,0 1.1339,-0.423 1.1339,-1.179 v -8.5716 c 0,-0.7541 -0.4831,-1.1747 -1.1339,-1.1747 -0.2863,0 -0.737,0.2253 -0.9502,0.4949 l -4.7843,6.3099 h -0.0298 v -5.6301 c 0,-0.7541 -0.4818,-1.1747 -1.1318,-1.1747 -0.648,0 -1.1327,0.4206 -1.1327,1.1747 z"
         style="fill:#231916;fill-opacity:1;fill-rule:nonzero;stroke:none"
         id="path919" />
      <path
         d="m 163.4944,151.2561 h -1.6449 c -0.724,0 -1.0262,0.5321 -1.0262,1.0443 0,0.5258 0.3762,1.0409 1.0262,1.0409 h 5.5531 c 0.6491,0 1.0269,-0.5151 1.0269,-1.0409 0,-0.5122 -0.303,-1.0443 -1.0269,-1.0443 h -1.6441 v -7.5778 c 0,-0.7532 -0.4839,-1.1741 -1.1345,-1.1741 -0.6468,0 -1.1296,0.4209 -1.1296,1.1741 z"
         style="fill:#231916;fill-opacity:1;fill-rule:nonzero;stroke:none"
         id="path921" />
      <path
         d="m 169.3037,152.0249 c 0,0.756 0.3768,1.3161 1.1784,1.3161 h 3.7406 c 0.7262,0 1.0715,-0.5145 1.0715,-1.0409 0,-0.5122 -0.362,-1.044 -1.0715,-1.044 h -2.6546 v -2.2042 h 2.4752 c 0.7387,0 1.1024,-0.5102 1.1024,-1.042 0,-0.5122 -0.3802,-1.0412 -1.1024,-1.0412 h -2.4752 v -2.2952 h 2.7912 c 0.7249,0 1.0715,-0.5131 1.0715,-1.0389 0,-0.5153 -0.3605,-1.0412 -1.0715,-1.0412 h -3.8945 c -0.6636,0 -1.1611,0.451 -1.1611,1.1328 z"
         style="fill:#231916;fill-opacity:1;fill-rule:nonzero;stroke:none"
         id="path923" />
      <path
         d="m 178.9322,148.5828 h 1.5525 c 0.8309,0 1.406,0.5003 1.406,1.3459 0,0.8606 -0.5751,1.3277 -1.406,1.3277 h -1.5525 z m -2.2638,3.5798 c 0,0.7229 0.4082,1.1787 1.1611,1.1787 h 2.6552 c 2.3264,0 3.7605,-1.0415 3.7605,-3.4126 0,-1.6611 -1.2538,-2.6116 -2.7922,-2.8537 l 2.5648,-2.7456 c 0.2123,-0.2245 0.3025,-0.453 0.3025,-0.6628 0,-0.5896 -0.4677,-1.163 -1.1333,-1.163 -0.271,0 -0.6333,0.1054 -0.8734,0.3946 l -3.3519,4.0549 h -0.0295 v -3.2745 c 0,-0.7535 -0.4833,-1.175 -1.1322,-1.175 -0.6494,0 -1.1316,0.4215 -1.1316,1.175 z"
         style="fill:#231916;fill-opacity:1;fill-rule:nonzero;stroke:none"
         id="path925" />
      <path
         d="m 185.4343,152.2502 c 0,0.756 0.4842,1.1775 1.1327,1.1775 0.6509,0 1.1299,-0.4215 1.1299,-1.1775 v -8.5716 c 0,-0.7541 -0.479,-1.1747 -1.1299,-1.1747 -0.6485,0 -1.1327,0.4206 -1.1327,1.1747 z"
         style="fill:#231916;fill-opacity:1;fill-rule:nonzero;stroke:none"
         id="path927" />
      <path
         d="m 192.09,146.787 h 2.8676 l -1.4043,4.3798 h -0.0284 z m -0.1646,5.4802 c 0.2562,0.6934 0.8447,1.2538 1.614,1.2538 0.7997,0 1.3584,-0.5318 1.6163,-1.2538 l 2.9591,-8.2102 c 0.0879,-0.2401 0.1185,-0.4539 0.1185,-0.5576 0,-0.5882 -0.4839,-0.9955 -1.0426,-0.9955 -0.6338,0 -0.9499,0.3302 -1.101,0.7857 l -0.4538,1.4154 h -4.1944 l -0.453,-1.4043 c -0.1502,-0.4666 -0.4694,-0.7968 -1.0859,-0.7968 -0.605,0 -1.1172,0.4532 -1.1172,1.0553 0,0.2435 0.076,0.4229 0.1055,0.4978 z"
         style="fill:#231916;fill-opacity:1;fill-rule:nonzero;stroke:none"
         id="path929" />
      <path
         d="m 199.2271,152.2502 c 0,0.756 0.4833,1.1775 1.1322,1.1775 0.2871,0 0.7554,-0.223 0.9507,-0.4966 l 4.7838,-6.3833 h 0.0317 v 5.7024 c 0,0.756 0.4839,1.1775 1.1313,1.1775 0.65,0 1.1308,-0.4215 1.1308,-1.1775 v -8.5716 c 0,-0.7541 -0.4808,-1.1747 -1.1308,-1.1747 -0.2877,0 -0.739,0.2253 -0.9507,0.4949 l -4.7858,6.3099 h -0.0294 v -5.6301 c 0,-0.7541 -0.4822,-1.1747 -1.1316,-1.1747 -0.6489,0 -1.1322,0.4206 -1.1322,1.1747 z"
         style="fill:#231916;fill-opacity:1;fill-rule:nonzero;stroke:none"
         id="path931" />
      <path
         d="m 113.1386,136.8037 c 0,0.6185 0.4519,1.1146 1.1294,1.1146 0.6508,0 1.1327,-0.4227 1.1327,-1.1146 v -3.2604 l 3.7137,3.9523 c 0.1661,0.182 0.4532,0.4227 0.8742,0.4227 0.5734,0 1.1182,-0.4337 1.1182,-1.0849 0,-0.39 -0.2432,-0.7092 -0.7398,-1.2081 l -2.8519,-2.806 3.4846,-3.6377 c 0.3628,-0.3625 0.6344,-0.6939 0.6344,-1.1483 0,-0.7067 -0.5579,-1.0386 -1.1772,-1.0386 -0.4369,0 -0.724,0.2568 -1.1481,0.7092 l -3.9081,4.2253 v -3.8514 c 0,-0.5882 -0.4524,-1.0831 -1.1327,-1.0831 -0.6475,0 -1.1294,0.4229 -1.1294,1.0831 z"
         style="fill:#231916;fill-opacity:1;fill-rule:nonzero;stroke:none"
         id="path933" />
      <path
         d="m 122.7345,136.5185 c 0,0.7504 0.377,1.3122 1.1769,1.3122 h 3.742 c 0.7254,0 1.0738,-0.5154 1.0738,-1.0415 0,-0.5133 -0.3631,-1.0411 -1.0738,-1.0411 h -2.6543 v -2.2051 h 2.4741 c 0.7404,0 1.1012,-0.5125 1.1012,-1.0395 0,-0.5136 -0.3764,-1.0411 -1.1012,-1.0411 h -2.4741 v -2.2947 h 2.7915 c 0.7251,0 1.0721,-0.5136 1.0721,-1.0411 0,-0.5137 -0.3628,-1.044 -1.0721,-1.044 h -3.8956 c -0.663,0 -1.1605,0.4538 -1.1605,1.1332 z"
         style="fill:#231916;fill-opacity:1;fill-rule:nonzero;stroke:none"
         id="path935" />
      <path
         d="m 136.4528,136.5004 c 0,-0.5857 -0.3921,-1.1155 -1.01,-1.1155 -0.6217,0 -1.1024,0.4525 -2.0092,0.4525 -0.648,0 -1.2362,-0.3496 -1.2362,-0.9808 0,-1.5517 5.0411,-0.5573 5.0411,-4.4524 0,-2.1572 -1.7827,-3.5031 -3.8642,-3.5031 -1.1627,0 -3.6683,0.2767 -3.6683,1.6895 0,0.5913 0.3923,1.0729 1.0109,1.0729 0.7106,0 1.5556,-0.5882 2.5364,-0.5882 0.9967,0 1.5392,0.5559 1.5392,1.3011 0,1.7796 -5.0408,0.707 -5.0408,4.2061 0,2.1149 1.735,3.4279 3.7425,3.4279 0.8462,0 2.9586,-0.3147 2.9586,-1.51"
         style="fill:#231916;fill-opacity:1;fill-rule:nonzero;stroke:none"
         id="path937" />
      <path
         d="m 138.5796,136.5185 c 0,0.7504 0.3773,1.3122 1.1767,1.3122 H 143.5 c 0.7254,0 1.0698,-0.5154 1.0698,-1.0415 0,-0.5133 -0.3617,-1.0411 -1.0698,-1.0411 h -2.6555 v -2.2051 h 2.4752 c 0.739,0 1.099,-0.5125 1.099,-1.0395 0,-0.5136 -0.3767,-1.0411 -1.099,-1.0411 h -2.4752 v -2.2947 h 2.791 c 0.7236,0 1.0712,-0.5136 1.0712,-1.0411 0,-0.5137 -0.3623,-1.044 -1.0712,-1.044 h -3.894 c -0.6641,0 -1.1619,0.4538 -1.1619,1.1332 z"
         style="fill:#231916;fill-opacity:1;fill-rule:nonzero;stroke:none"
         id="path939" />
      <path
         d="m 145.9431,136.747 c 0,0.7486 0.4842,1.1713 1.1322,1.1713 0.6494,0 1.1333,-0.4227 1.1333,-1.1713 v -3.2034 h 4.7381 v 3.2034 c 0,0.7486 0.4833,1.1713 1.131,1.1713 0.65,0 1.1322,-0.4227 1.1322,-1.1713 v -8.5765 c 0,-0.7532 -0.4822,-1.1755 -1.1322,-1.1755 -0.6477,0 -1.131,0.4223 -1.131,1.1755 v 3.2919 h -4.7381 v -3.2919 c 0,-0.7532 -0.4839,-1.1755 -1.1333,-1.1755 -0.648,0 -1.1322,0.4223 -1.1322,1.1755 z"
         style="fill:#231916;fill-opacity:1;fill-rule:nonzero;stroke:none"
         id="path941" />
      <path
         d="m 159.5991,131.2792 h 2.8686 l -1.4037,4.3773 h -0.0303 z m -0.1653,5.4791 c 0.2574,0.6951 0.8461,1.2524 1.6152,1.2524 0.8005,0 1.3581,-0.5264 1.6143,-1.2524 l 2.9594,-8.2091 c 0.0907,-0.2426 0.1196,-0.4521 0.1196,-0.5601 0,-0.5888 -0.4827,-0.9944 -1.04,-0.9944 -0.6341,0 -0.9533,0.3316 -1.1027,0.7829 l -0.453,1.4199 h -4.1955 l -0.4539,-1.4015 c -0.1494,-0.4697 -0.466,-0.8013 -1.0845,-0.8013 -0.6044,0 -1.1174,0.4513 -1.1174,1.055 0,0.2427 0.0754,0.4227 0.1046,0.4995 z"
         style="fill:#231916;fill-opacity:1;fill-rule:nonzero;stroke:none"
         id="path943" />
      <path
         d="m 167.2551,135.7483 h -1.6457 c -0.726,0 -1.0265,0.5279 -1.0265,1.0412 0,0.5261 0.377,1.0409 1.0265,1.0409 h 5.5556 c 0.6463,0 1.0258,-0.5148 1.0258,-1.0409 0,-0.5133 -0.3024,-1.0412 -1.0258,-1.0412 h -1.6461 v -7.5772 c 0,-0.7535 -0.4836,-1.1764 -1.1341,-1.1764 -0.6463,0 -1.1297,0.4229 -1.1297,1.1764 z"
         style="fill:#231916;fill-opacity:1;fill-rule:nonzero;stroke:none"
         id="path945" />
      <path
         d="m 174.3344,131.2792 h 2.8667 l -1.402,4.3773 h -0.0307 z m -0.165,5.4791 c 0.2571,0.6951 0.8459,1.2524 1.6155,1.2524 0.7982,0 1.3569,-0.525 1.6137,-1.2524 l 2.9586,-8.2091 c 0.0901,-0.2426 0.119,-0.4521 0.119,-0.5601 0,-0.5888 -0.4819,-0.9944 -1.0411,-0.9944 -0.6347,0 -0.9508,0.3316 -1.1007,0.7829 l -0.453,1.4199 h -4.195 l -0.4527,-1.4015 c -0.1517,-0.4697 -0.4697,-0.8013 -1.0857,-0.8013 -0.6057,0 -1.1194,0.4513 -1.1194,1.055 0,0.2427 0.0768,0.4227 0.1072,0.4995 z"
         style="fill:#231916;fill-opacity:1;fill-rule:nonzero;stroke:none"
         id="path947" />
      <path
         d="m 181.472,136.747 c 0,0.7486 0.4822,1.1713 1.1308,1.1713 0.2891,0 0.7557,-0.222 0.9513,-0.4961 l 4.7851,-6.3853 h 0.0301 v 5.7101 c 0,0.7486 0.4816,1.1713 1.1327,1.1713 0.6469,0 1.1316,-0.4227 1.1316,-1.1713 v -8.5765 c 0,-0.7532 -0.4847,-1.1755 -1.1316,-1.1755 -0.288,0 -0.7401,0.2236 -0.9527,0.4949 l -4.7829,6.3099 h -0.0315 v -5.6293 c 0,-0.7532 -0.4821,-1.1755 -1.1321,-1.1755 -0.6486,0 -1.1308,0.4223 -1.1308,1.1755 z"
         style="fill:#231916;fill-opacity:1;fill-rule:nonzero;stroke:none"
         id="path949" />
      <path
         d="m 115.4004,117.5683 h 1.5562 c 0.8289,0 1.4023,0.4967 1.4023,1.3406 0,0.8611 -0.5734,1.3277 -1.4023,1.3277 h -1.5562 z m -2.2618,3.5777 c 0,0.7177 0.4068,1.1758 1.1597,1.1758 h 2.6583 c 2.3239,0 3.7568,-1.0426 3.7568,-3.4129 0,-1.6606 -1.2518,-2.6085 -2.7907,-2.8517 l 2.5648,-2.7451 c 0.2123,-0.2267 0.3016,-0.4549 0.3016,-0.6636 0,-0.5927 -0.4666,-1.167 -1.1319,-1.167 -0.2718,0 -0.6327,0.1103 -0.8736,0.3954 l -3.3517,4.0593 h -0.0315 v -3.2735 c 0,-0.7512 -0.4816,-1.1812 -1.1327,-1.1812 -0.6474,0 -1.1291,0.43 -1.1291,1.1812 z"
         style="fill:#231916;fill-opacity:1;fill-rule:nonzero;stroke:none"
         id="path951" />
      <path
         d="m 121.9048,121.0096 c 0,0.7529 0.3781,1.3122 1.1775,1.3122 h 3.7431 c 0.7223,0 1.0704,-0.5123 1.0704,-1.0426 0,-0.5122 -0.3634,-1.0426 -1.0704,-1.0426 h -2.6566 v -2.2042 h 2.4747 c 0.7395,0 1.1026,-0.5074 1.1026,-1.0401 0,-0.5136 -0.3767,-1.0417 -1.1026,-1.0417 h -2.4747 v -2.2909 h 2.7921 c 0.7237,0 1.0713,-0.5143 1.0713,-1.0426 0,-0.5131 -0.3626,-1.0409 -1.0713,-1.0409 h -3.8939 c -0.663,0 -1.1622,0.4527 -1.1622,1.1276 z"
         style="fill:#231916;fill-opacity:1;fill-rule:nonzero;stroke:none"
         id="path953" />
      <path
         d="m 131.5312,117.1287 h 1.5412 c 0.9511,0 1.5543,0.6933 1.5543,1.6002 0,0.9079 -0.6032,1.6012 -1.5543,1.6012 h -1.5412 z m -2.2631,4.0173 c 0,0.7075 0.4229,1.1755 1.1792,1.1755 h 2.6696 c 2.219,0 3.8642,-1.4491 3.8642,-3.6082 0,-2.2051 -1.7047,-3.5757 -3.7729,-3.5757 h -1.677 v -2.4746 c 0,-0.7518 -0.4816,-1.1812 -1.1304,-1.1812 -0.6491,0 -1.1327,0.4294 -1.1327,1.1812 z"
         style="fill:#231916;fill-opacity:1;fill-rule:nonzero;stroke:none"
         id="path955" />
      <path
         d="m 137.9458,121.2293 c 0,0.76 0.4821,1.1815 1.1327,1.1815 0.648,0 1.1321,-0.4215 1.1321,-1.1815 v -5.2634 c 0,-1.387 0.8913,-2.4874 2.3233,-2.4874 1.3731,0 2.3108,1.1597 2.3108,2.4874 v 5.2634 c 0,0.76 0.4819,1.1815 1.1299,1.1815 0.6483,0 1.1336,-0.4215 1.1336,-1.1815 v -5.383 c 0,-2.5342 -2.0849,-4.4501 -4.5743,-4.4501 -2.5191,0 -4.5881,1.8847 -4.5881,4.4501 z"
         style="fill:#231916;fill-opacity:1;fill-rule:nonzero;stroke:none"
         id="path957" />
      <path
         d="m 151.0149,113.5678 h 1.7807 c 0.815,0 1.4179,0.468 1.4179,1.313 0,0.705 -0.5425,1.1914 -1.5993,1.1914 h -1.5993 z m 0,4.4972 h 1.1769 c 0.7405,0 1.2223,0.4368 1.2223,1.1942 0,0.7081 -0.5572,1.0715 -1.2223,1.0715 h -1.1769 z m -2.2655,3.1249 c 0,0.7231 0.4995,1.1316 1.1943,1.1316 h 2.8964 c 1.5718,0 2.8384,-1.0599 2.8384,-2.6581 0,-1.0553 -0.4386,-1.764 -1.4032,-2.2152 v -0.0295 c 1.2816,-0.1834 2.2932,-1.2544 2.2932,-2.5676 0,-2.1272 -1.4179,-3.2752 -3.4999,-3.2752 h -3.1105 c -0.6936,0 -1.2087,0.4377 -1.2087,1.148 z"
         style="fill:#231916;fill-opacity:1;fill-rule:nonzero;stroke:none"
         id="path959" />
      <path
         d="m 157.7883,121.2293 c 0,0.76 0.4856,1.1815 1.1327,1.1815 0.6506,0 1.1327,-0.4215 1.1327,-1.1815 v -7.5694 h 2.6864 c 0.7691,0 1.1019,-0.5743 1.0863,-1.0876 -0.029,-0.5009 -0.4215,-0.9964 -1.0863,-0.9964 h -3.774 c -0.7393,0 -1.1778,0.4802 -1.1778,1.2362 z"
         style="fill:#231916;fill-opacity:1;fill-rule:nonzero;stroke:none"
         id="path961" />
      <path
         d="m 164.5946,121.2293 c 0,0.76 0.4821,1.1815 1.1313,1.1815 0.6514,0 1.1341,-0.4215 1.1341,-1.1815 v -8.5663 c 0,-0.7518 -0.4827,-1.1812 -1.1341,-1.1812 -0.6492,0 -1.1313,0.4294 -1.1313,1.1812 z"
         style="fill:#231916;fill-opacity:1;fill-rule:nonzero;stroke:none"
         id="path963" />
      <path
         d="m 168.5948,121.2945 c 0,0.6185 0.4538,1.1163 1.1322,1.1163 0.648,0 1.1313,-0.4213 1.1313,-1.1163 v -3.2618 l 3.7122,3.9568 c 0.1673,0.1789 0.4524,0.4213 0.8779,0.4213 0.5709,0 1.116,-0.4354 1.116,-1.0837 0,-0.3926 -0.2432,-0.7132 -0.7398,-1.2081 l -2.8523,-2.808 3.4852,-3.6403 c 0.3643,-0.3589 0.6336,-0.6956 0.6336,-1.1443 0,-0.7118 -0.5593,-1.0449 -1.1755,-1.0449 -0.438,0 -0.7246,0.2571 -1.1475,0.7118 l -3.9098,4.2281 v -3.848 c 0,-0.5887 -0.453,-1.0919 -1.1313,-1.0919 -0.6489,0 -1.1322,0.43 -1.1322,1.0919 z"
         style="fill:#231916;fill-opacity:1;fill-rule:nonzero;stroke:none"
         id="path965" />
      <path
         d="m 113.1386,105.7258 c 0,0.7557 0.4819,1.1741 1.1294,1.1741 0.6508,0 1.1327,-0.4184 1.1327,-1.1741 v -8.5706 c 0,-0.7577 -0.4819,-1.1801 -1.1327,-1.1801 -0.6475,0 -1.1294,0.4224 -1.1294,1.1801 z"
         style="fill:#231916;fill-opacity:1;fill-rule:nonzero;stroke:none"
         id="path967" />
      <path
         d="m 117.0459,105.7258 c 0,0.7557 0.4833,1.1741 1.1322,1.1741 0.2863,0 0.7534,-0.2234 0.9482,-0.4944 l 4.7874,-6.387 h 0.0283 v 5.7073 c 0,0.7557 0.4836,1.1741 1.1322,1.1741 0.6508,0 1.1316,-0.4184 1.1316,-1.1741 v -8.5706 c 0,-0.7577 -0.4808,-1.1801 -1.1316,-1.1801 -0.2843,0 -0.737,0.2268 -0.9499,0.4995 l -4.784,6.3085 h -0.0315 v -5.6279 c 0,-0.7577 -0.4827,-1.1801 -1.1307,-1.1801 -0.6489,0 -1.1322,0.4224 -1.1322,1.1801 z"
         style="fill:#231916;fill-opacity:1;fill-rule:nonzero;stroke:none"
         id="path969" />
      <path
         d="m 130.1131,98.1502 h 1.5253 c 1.9451,0 2.8369,1.4312 2.8369,3.2405 0,1.937 -0.9042,3.3378 -2.9883,3.3378 h -1.3739 z m -2.2635,7.4996 c 0,0.6928 0.4839,1.1625 1.1631,1.1625 h 2.5035 c 3.3815,0 5.3136,-2.1728 5.3136,-5.5259 0,-3.1683 -2.0512,-5.2203 -5.1619,-5.2203 h -2.6266 c -0.4986,0 -1.1917,0.271 -1.1917,1.1328 z"
         style="fill:#231916;fill-opacity:1;fill-rule:nonzero;stroke:none"
         id="path971" />
      <path
         d="m 145.8998,101.4395 c 0,1.8283 -0.953,3.4736 -2.8375,3.4736 -1.887,0 -2.8389,-1.6453 -2.8389,-3.4736 0,-1.8408 0.921,-3.4733 2.8389,-3.4733 1.9165,0 2.8375,1.6325 2.8375,3.4733 z m -8.0306,0 c 0,3.1371 2.1135,5.5573 5.1931,5.5573 3.0325,0 5.1911,-2.495 5.1911,-5.5573 0,-3.1246 -2.0974,-5.5551 -5.1911,-5.5551 -3.0648,0 -5.1931,2.4305 -5.1931,5.5551"
         style="fill:#231916;fill-opacity:1;fill-rule:nonzero;stroke:none"
         id="path973" />
      <path
         d="m 149.4734,105.7258 c 0,0.7557 0.4825,1.1741 1.1336,1.1741 0.2849,0 0.7534,-0.2234 0.9504,-0.4944 l 4.7838,-6.387 h 0.0292 v 5.7073 c 0,0.7557 0.4825,1.1741 1.1327,1.1741 0.6497,0 1.1339,-0.4184 1.1339,-1.1741 v -8.5706 c 0,-0.7577 -0.4842,-1.1801 -1.1339,-1.1801 -0.2871,0 -0.739,0.2268 -0.9499,0.4995 l -4.7854,6.3085 h -0.0284 v -5.6279 c 0,-0.7577 -0.4853,-1.1801 -1.1324,-1.1801 -0.6511,0 -1.1336,0.4224 -1.1336,1.1801 z"
         style="fill:#231916;fill-opacity:1;fill-rule:nonzero;stroke:none"
         id="path975" />
      <path
         d="m 160.278,105.4973 c 0,0.7577 0.3798,1.315 1.1786,1.315 h 3.7426 c 0.7251,0 1.0709,-0.5148 1.0709,-1.0412 0,-0.5167 -0.3606,-1.0426 -1.0709,-1.0426 h -2.6549 v -2.2025 h 2.4726 c 0.7413,0 1.1027,-0.5131 1.1027,-1.0394 0,-0.5168 -0.3773,-1.0426 -1.1027,-1.0426 h -2.4726 v -2.2938 h 2.7898 c 0.7243,0 1.0707,-0.5156 1.0707,-1.0426 0,-0.5156 -0.3612,-1.0415 -1.0707,-1.0415 h -3.8931 c -0.6647,0 -1.163,0.4519 -1.163,1.1328 z"
         style="fill:#231916;fill-opacity:1;fill-rule:nonzero;stroke:none"
         id="path977" />
      <path
         d="m 173.9965,105.4817 c 0,-0.5871 -0.3915,-1.1134 -1.0111,-1.1134 -0.6165,0 -1.1004,0.4507 -2.0055,0.4507 -0.65,0 -1.2388,-0.3467 -1.2388,-0.9811 0,-1.5551 5.0412,-0.5587 5.0412,-4.4501 0,-2.1606 -1.7822,-3.5031 -3.8654,-3.5031 -1.1605,0 -3.666,0.2716 -3.666,1.6929 0,0.5862 0.3909,1.0678 1.0111,1.0678 0.7078,0 1.5548,-0.5851 2.535,-0.5851 0.997,0 1.5415,0.5553 1.5415,1.2929 0,1.7807 -5.0434,0.7138 -5.0434,4.2128 0,2.1158 1.736,3.4305 3.7432,3.4305 0.8467,0 2.9582,-0.3203 2.9582,-1.5148"
         style="fill:#231916;fill-opacity:1;fill-rule:nonzero;stroke:none"
         id="path979" />
      <path
         d="m 176.1242,105.7258 c 0,0.7557 0.4833,1.1741 1.1302,1.1741 0.6514,0 1.1338,-0.4184 1.1338,-1.1741 v -8.5706 c 0,-0.7577 -0.4824,-1.1801 -1.1338,-1.1801 -0.6469,0 -1.1302,0.4224 -1.1302,1.1801 z"
         style="fill:#231916;fill-opacity:1;fill-rule:nonzero;stroke:none"
         id="path981" />
      <path
         d="m 182.7785,100.264 h 2.8678 l -1.4031,4.3755 h -0.0306 z m -0.1652,5.4748 c 0.2571,0.6965 0.8461,1.2577 1.614,1.2577 0.8011,0 1.3592,-0.532 1.616,-1.2577 l 2.9569,-8.2066 c 0.0904,-0.2421 0.121,-0.4541 0.121,-0.5618 0,-0.5842 -0.4827,-0.9955 -1.0395,-0.9955 -0.6355,0 -0.9533,0.3333 -1.1026,0.7886 l -0.4556,1.413 h -4.1938 l -0.4536,-1.4023 c -0.1496,-0.466 -0.4668,-0.7993 -1.0854,-0.7993 -0.6023,0 -1.1174,0.4555 -1.1174,1.0567 0,0.2427 0.076,0.4241 0.1066,0.5006 z"
         style="fill:#231916;fill-opacity:1;fill-rule:nonzero;stroke:none"
         id="path983" />
      <path
         d="m 94.8093,113.9695 c 2.385,-2.3806 3.7057,-5.5678 3.7057,-8.9731 0,-3.4041 -1.3156,-6.5925 -3.7012,-8.9807 -2.3854,-2.3893 -5.5732,-3.71 -8.9807,-3.71 -3.3979,0.0054 -6.5877,1.3187 -8.9745,3.7029 l -0.0632,0.0609 v 26.7636 h 8.6235 z"
         style="fill:#d2dc00;fill-opacity:1;fill-rule:nonzero;stroke:none"
         id="path985" />
      <path
         d="m 75.0118,95.118 0.059,-0.0539 C 75.0461,87.531 68.91,81.4056 61.3766,81.3898 c -6.9321,0 -12.7675,5.1925 -13.5876,12.0713 v 28.8471 L 71.2888,98.8466 Z"
         style="fill:#00b1a9;fill-opacity:1;fill-rule:nonzero;stroke:none"
         id="path987" />
      <path
         d="M 74.3567,122.8329 V 99.0156 l -23.8504,23.8173 z"
         style="fill:#d2dc00;fill-opacity:1;fill-rule:nonzero;stroke:none"
         id="path989" />
      <path
         d="M 45.248,138.077 V 110.6994 H 32.0709 c -7.5328,0.0136 -13.6723,6.162 -13.6865,13.6965 0.0142,7.5296 6.1537,13.6703 13.6865,13.6811 z"
         style="fill:#00b1a9;fill-opacity:1;fill-rule:nonzero;stroke:none"
         id="path991" />
      <path
         d="m 94.7792,152.6244 c 2.3905,-2.3927 3.7072,-5.5993 3.7072,-9.0332 0,-3.374 -1.3111,-6.5483 -3.6916,-8.9297 l -9.3762,-8.8752 h -8.6229 v 26.7981 l 0.0232,0.0227 c 2.3879,2.393 5.5808,3.7137 8.9912,3.7137 3.3988,0 6.5835,-1.3195 8.9691,-3.6964"
         style="fill:#d2dc00;fill-opacity:1;fill-rule:nonzero;stroke:none"
         id="path993" />
      <path
         d="M 74.3567,149.6344 V 125.786 H 50.5474 Z"
         style="fill:#d2dc00;fill-opacity:1;fill-rule:nonzero;stroke:none"
         id="path995" />
      <path
         d="m 75.0711,154.2059 v -0.6186 l -0.0593,-0.055 -27.2225,-26.7607 v 28.5463 c 0.8201,6.8868 6.6555,12.0739 13.5873,12.0739 h 0.0051 c 7.5334,-0.0145 13.6746,-5.6489 13.6894,-13.1859"
         style="fill:#00b1a9;fill-opacity:1;fill-rule:nonzero;stroke:none"
         id="path997" />
    </g>
  </g>
</svg>
